<?xml version="1.0" encoding="UTF-8"?> <!-- Generator: Adobe Illustrator 21.1.0, SVG Export Plug-In . SVG Version: 6.00 Build 0) --> <svg xmlns="http://www.w3.org/2000/svg" xmlns:xlink="http://www.w3.org/1999/xlink" id="Layer_1" x="0px" y="0px" viewBox="0 0 380 260" style="enable-background:new 0 0 380 260;" xml:space="preserve"> <style type="text/css"> .st0{fill:#FFFFFF;} </style> <g> <polygon class="st0" points="165.6,91.7 165.6,96.4 174.7,96.4 174.7,98.1 179.4,98.1 179.4,93.4 176,93.4 176,91.7 "></polygon> <polygon class="st0" points="170.7,73.4 163.9,73.4 163.9,80.3 170.7,80.3 174.2,80.3 174.2,83.7 181,83.7 181,76.8 177.6,76.8 177.6,73.4 "></polygon> <polygon class="st0" points="220.4,73.4 213.6,73.4 206.7,73.4 206.7,76.8 203.3,76.8 203.3,83.7 210.1,83.7 210.1,80.3 213.6,80.3 220.4,80.3 "></polygon> <polygon class="st0" points="141.6,160.9 141.6,150.6 141.6,150.5 141.6,140.2 121.1,140.2 121.1,150.6 131.4,150.6 131.4,160.9 "></polygon> <polygon class="st0" points="176,112.8 176,107.7 165.6,107.7 165.6,118.1 170.7,118.1 170.7,123.2 175.9,123.2 175.9,126.6 186.2,126.6 186.3,126.6 196.4,126.6 196.6,126.6 206.8,126.6 206.8,123.2 212,123.2 212,118.1 217.1,118.1 217.1,107.7 206.7,107.7 206.7,112.8 201.6,112.8 201.6,116.2 196.6,116.2 196.4,116.2 186.3,116.2 186.2,116.2 181.2,116.2 181.2,112.8 "></polygon> <polygon class="st0" points="165.7,17.2 213.6,17.2 213.6,23.8 237.6,23.8 237.6,13.5 213.6,13.5 213.6,3.2 162.2,3.2 162.2,13.5 141.7,13.5 141.7,23.8 165.7,23.8 "></polygon> <rect x="206.6" y="88.8" class="st0" width="10.4" height="10.4"></rect> <polygon class="st0" points="193.1,198.4 193.1,195.1 193.1,195 193.1,184.9 203.3,184.9 203.3,174.4 192.9,174.4 192.9,184.7 182.8,184.7 182.8,174.4 172.6,174.4 172.6,160.7 172.4,160.7 141.6,160.7 141.6,174.6 172.4,174.6 172.4,184.9 182.6,184.9 182.6,195 182.6,195.1 182.6,198.4 182.6,205.3 141.8,205.3 141.8,215.7 182.8,215.7 182.8,208.8 192.9,208.8 192.9,215.7 233.9,215.7 233.9,205.3 193.1,205.3 "></polygon> <polygon class="st0" points="138.3,193.3 138.3,191.6 131.4,191.6 131.4,184.9 131.4,181.3 131.4,174.4 128,174.4 128,171 121.1,171 117.6,171 110.7,171 110.7,181.4 117.6,181.4 117.6,184.9 121,184.9 121,191.7 127.9,191.7 127.9,193.3 127.9,202 127.9,203.7 131.3,203.7 131.3,205.4 141.7,205.4 141.7,195 138.3,195 "></polygon> <polygon class="st0" points="247.9,195.1 258.1,195.1 258.1,184.9 268.4,184.9 268.4,174.4 258.1,174.4 258,174.4 247.7,174.4 247.7,184.7 247.7,184.9 247.7,195 237.4,195 237.4,205.4 247.9,205.4 "></polygon> <polygon class="st0" points="203.2,225.8 196.3,225.8 196.3,229.2 192.9,229.2 192.9,236.1 192.9,239.7 192.9,246.4 192.9,246.5 192.9,256.8 203.2,256.8 203.3,256.8 213.6,256.8 213.6,246.4 203.3,246.4 203.3,239.7 203.3,236.2 206.8,236.2 213.6,236.2 213.6,225.8 206.8,225.8 "></polygon> <polygon class="st0" points="172.4,225.8 162.1,225.8 162.1,236.2 172.4,236.2 172.4,246.4 162.1,246.4 162.1,256.8 172.4,256.8 172.5,256.8 182.8,256.8 182.8,246.5 182.8,246.4 182.8,236.2 182.8,236.1 182.8,225.8 172.5,225.8 "></polygon> <polygon class="st0" points="121.1,246.4 121.1,241.2 110.7,241.2 110.7,251.6 114.2,251.6 114.2,256.8 121,256.8 124.6,256.8 131.4,256.8 131.4,246.4 124.6,246.4 "></polygon> <rect x="110.7" y="229.2" class="st0" width="10.4" height="10.4"></rect> <path class="st0" d="M136.6,222.4h-5.1v-6.8h-6.8v-3.4h-3.4h-7H111h-0.1h-3.3v-3.3V206v-0.6v-2.8V202v-1.7v-1.1v-0.6v-2.8v-1.7 v-1.7h-6.2v1.7v1.7h-0.6v-3.4v-0.6v-1.1v-4.1v-1.1v-5.1h-5.1h-1.1h-4.1v-5.1h-0.1v-4.1h10.5v-10.3H121v-10.4h-13.1v-6.8H101v-3.4 h-6.8h-0.4h-6.5h-0.4h-1.3h-5.5h-1.2v-3.5h-1.7h-9.1h-1.7v7H56.2v-10.1v-0.1v-10.3H46.1v-10.1v-0.1v-0.6h10.4V82.6h0.1V71.8h-1.4 v-3.3H14.9v10.4h30.9v3.7h0.3v20.2H35.8h-0.1H25.4v10.4h10.3v10.3h10.1v10.1v0.1V144H56v13.6H39v-3.5h-3.4v-10.2H25.2V154h6.7v3.6 h3.3v6.7h3.7v3.4H56v0.3h10.3v9.9H28.8v-3.4h-3.4v-10.3H14.9v10.4h6.8v6.8h3.4v3.4h20.5v3.4H84h3.4v3.4h1.7v0.6v4.5v1.7h5.1v3.4 h1.7h4.5h0.6v0.6v2.8v0.6v2.8v3.3h-0.8v10.4h10.3v5.1h10.4V226h5v6.8h5.1v3.4h10.4v-10.4h-5.1v-3.4H136.6z M86.8,160.7v6.8H66.4 v-20.2h1.7h9.1h1.2h0.5h1.2h5.5h1.3h0.4h1.3v3.4h7.2v-3.4h4.8v3h-0.1v10.3L86.8,160.7L86.8,160.7z"></path> <rect x="131.4" y="96.1" class="st0" width="10.4" height="23.8"></rect> <rect x="5" y="78.7" class="st0" width="10.4" height="85.2"></rect> <path class="st0" d="M371.1,85.5L371.1,85.5v-8.7v-1.7H366h-5.3h-1.6h-1.7h-1.9h-6.7h-0.1h-1.6H347h-8.6h-1.7v3.4h-3.4v3.4h-6.8 h-3.4v6.8v3.6v3.3v1.7v1.8v6.7v0.1v1.7v8.6h3.4v3.4h6.8v5H323v8.6v1.8v3.3v5.3v3.3v1.8v5h-8.4v-5.1h-5.1v-5.1h-6.8h-3.6h-6.7h-0.1 H282v6.8h-10.3v3.4h-3.3h-0.1h-5v-10.3h-5.1h-5.3h-5h-0.1h-10.3v10.3v0.1v3.3v6.8h-30.7v10.4h30.7h0.2v-6.8h10.2v-3.4v-7V154h5h5.1 v10.3h10.3h0.1h3.3h6.8v10.3h10.3v1.6v5.3v3.3h-10.3v6.8v3.4h-10.3v6.8v3.6v6.7v0.1v3.3h-10.1H258h-10.3v5.1h-8.6v5.1h-1.7v10.4 h10.4V231h1.7v-5h5v6.8h3.4v3.3h-3.4v9.3h-6.1v5.1v1.1v5.1h6.2v-5.1v-1.1v-4.1H265V243h3.4v-10.4H265v-3.3h3.4V226v-3.4h10.3v-10.3 v-0.1v-6.7V202H289v-6.8h10.1h0.1h3.3h7h3.4v-3.1h45.2v-7.2h6.2v-3.4h6.8v-8.6h3.4v-2.1h0.4V85.6h-3.8V85.5z M312.8,164.2h-3.4 v10.3h-1.6h-5.3h-3.3V171h-10.3v-6.8h-6.8v-3.3V154h10.1h0.1h6.7h3.6h1.6v5.1h8.6L312.8,164.2L312.8,164.2z M323.2,157.5h10.1v3.3 h-3.4v3.4h-1.6h-1.7v-3.4h-3.4V157.5z M364.6,162.5h-0.4v8.6h-3.4v3.4H354v10.3h-41v-10.1h5h1.9h6.7h1.9h1.6h7h3.4v-3.4h3.4v-3.4 v-6.8h3.3h3.3h3.4v-6.7h-3.4V151h-6.7v3.4v3.1h-10.1v-8.4V147v-3.3v-5.3v-3.3v-1.8V130H344v-10.3h10v-10.4h-10.3h-0.1h-6.7h-3.4 v-1.6V106v0v-6.7v-1.8v-1.7v-3.3h3.4V89h6.8v-3.4h3.3h0.1h1.6h0.1h6.7h1.9h1.7h1.6v1.7h3.9V162.5z"></path> <polygon class="st0" points="227.7,153.6 227.7,143.3 238,143.3 238,119.8 247.7,119.8 247.7,99.2 258.1,99.2 258.1,88.8 247.7,88.8 247.7,99.2 237.3,99.2 237.3,118.9 227.6,118.9 227.6,133.5 217.3,133.5 217.3,135.1 217.1,135.1 208.4,135.1 206.7,135.1 206.7,140.2 196.4,140.2 196.4,143.6 193.1,143.6 186.2,143.6 182.9,143.6 182.9,140.2 172.6,140.2 172.5,140.2 162.7,140.2 162.7,130.4 152.4,130.4 152.4,116.7 142,116.7 142,139.9 152.3,139.9 152.3,153.6 162.7,153.6 162.7,150.6 172.5,150.6 172.5,154 182.7,154 182.9,154 186.2,154 193.1,154 196.4,154 196.6,154 206.8,154 206.8,150.6 206.8,145.5 208.4,145.5 217.1,145.5 217.3,145.5 217.3,153.6 "></polygon> <polygon class="st0" points="121.1,65 131.7,65 131.7,85.3 121.2,85.3 121.2,96.1 132,96.1 132,85.3 142.1,85.3 142.1,65 172.5,65 172.5,51.2 172.2,51.2 172.2,44.4 193.8,44.4 193.8,54.7 206.6,54.7 206.6,65 237.5,65 237.5,88.8 248,88.8 248,75.1 258.1,75.1 258.1,44.3 247.9,44.3 247.9,23.8 237.6,23.8 237.6,47.7 244.4,47.7 244.4,54.6 212.2,54.6 212.2,44.3 196.5,44.3 196.5,34 169.6,34 169.6,30.5 158.9,30.5 158.9,41.3 162.4,41.3 162.4,44.3 151.5,44.3 151.5,51.2 134.6,51.2 134.6,44.2 141.5,44.2 141.5,23.8 131.2,23.8 131.2,44.2 121,44.2 121,57.8 121.1,57.8 "></polygon> </g> </svg> 